PathFileType	4	(X/Y/Z)	C:/Users/beibeiliu/ov580/test_trc/User2\sequence.9_training_dense_right.trc
DataRate	CameraRate	NumFrames	NumMarkers	Units	OrigDataRate	OrigDataStartFrame	OrigNumFrames
120	120	18	19	mm	120	54	80
Frame#	Time	ThumbCMC			ThumbMCP			ThumbIP			ThumbTip			IndexMCP			IndexPIP			IndexTip			MiddleMCP			MiddlePIP			MiddleTip			RingMCP			RingPIP			RingTip			PinkyMCP			PinkyPIP			PinkyTip			BackHand1			BackHand2			BackHand3	
		X0	Y0	Z0	X1	Y1	Z1	X2	Y2	Z2	X3	Y3	Z3	X4	Y4	Z4	X5	Y5	Z5	X6	Y6	Z6	X7	Y7	Z7	X8	Y8	Z8	X9	Y9	Z9	X10	Y10	Z10	X11	Y11	Z11	X12	Y12	Z12	X13	Y13	Z13	X14	Y14	Z14	X15	Y15	Z15	X16	Y16	Z16	X17	Y17	Z17	X18	Y18	Z18	
53	0.441667	175.621	58.5749	-30.0254	171.429	74.2999	-61.1439	155.63	71.491	-90.8227	139.95	61.5675	-115.466	161.771	29.3914	-109.361	151.34	25.4729	-133.021	139.5	19.1693	-158.275	157.874	9.86038	-114.016	146.257	5.12849	-144.867	137.433	-1.21828	-170.349	147.021	-11.5842	-106.571	139.211	-12.5477	-128.211	131.811	-9.64053	-159.067	137.881	-23.0339	-82.1152	129.538	-25.4228	-105.694	129.499	-22.738	-129.864	170.365	-10.9617	-47.5749	182.377	-7.36944	-18.8755	189.166	24.4487	-42.3053	
54	0.45	164.492	60.5393	-23.1227	159.835	77.7201	-50.1843	148.56	76.1834	-86.1739	136.355	70.9023	-106.266	162.611	38.1168	-109.519	155.384	37.4907	-135.877	148.283	32.1567	-158.12	163.136	19.39	-114.346	154.941	17.6354	-144.719	150.235	16.063	-170.056	157.338	-0.0451178	-107.257	151.637	-4.75656	-129.698	146.585	-1.30685	-157.045	150.304	-17.3256	-88.1868	144.291	-17.2394	-112.439	144.526	-17.2995	-138.784	174.809	-1.11397	-50	184.911	-2.08502	-16.6045	186.576	33.6344	-39.9598	
55	0.458333	151.303	59.9753	-18.4255	145.479	77.2568	-46.1458	134.917	80.0189	-77.584	126.929	70.3015	-103.464	158.286	51.1304	-103.883	152.888	47.8452	-129.922	148.708	45.2556	-154.267	164.165	30.476	-110.817	157.736	31.1969	-139.749	155.385	29.2164	-171.936	164.43	6.51633	-104.127	158.637	12.6338	-132.303	156.503	9.83145	-159.415	159.793	-10.3701	-87.0655	156.117	-11.0845	-114.964	156.668	-3.15905	-136.827	179.602	5.28959	-49.3876	185.679	5.26109	-14.7186	178.769	44.0085	-33.8552	
56	0.466667	136.207	57.1138	-13.1832	125.404	75.0998	-39.6053	119.613	75.7085	-73.0871	113.161	71.7212	-98.1157	147.977	56.8198	-98.7733	142.525	59.6221	-121.817	140.697	58.2512	-151.659	158.362	41.3743	-106.087	153.106	41.1917	-133.695	151.154	45.2314	-164.941	163.278	21.0203	-101.274	161.321	20.6116	-129.324	157.7	23.6785	-155.872	163.724	0.554997	-87.5289	162.208	-0.392674	-113.775	161.132	5.07091	-138.301	177.723	12.7239	-44.6967	184.199	13.4313	-13.4114	168.006	46.3819	-28.7118	
57	0.475	118.759	49.6205	-6.82368	106.191	67.984	-35.0034	99.4205	71.5833	-70.758	95.8495	66.0668	-90.0258	130.795	63.4938	-90.3029	128.221	64.4479	-117.361	126.031	64.495	-146.305	147.028	48.0378	-101.915	141.005	53.6901	-131.373	140.544	56.7213	-159.108	158.564	28.718	-98.8031	154.418	33.7338	-123.74	148.739	43.028	-151.407	165.449	8.83958	-89.2972	158.714	14.8174	-110.488	158.971	23.6273	-137.25	170.41	24.5578	-41.2941	177.622	20.3453	-13.3852	153.914	48.8506	-23.0501	
58	0.483333	105.528	40.0473	-4.40068	86.854	55.3412	-25.9958	78.9821	62.6116	-59.876	80.1179	57.3852	-86.5151	114.363	60.7877	-84.1485	107.641	67.3076	-111.648	106.419	69.1083	-137.575	132.437	53.0156	-94.1782	127.828	58.0698	-126.85	122.1	68.3049	-154.54	144.976	39.4277	-93.6286	143.751	41.6887	-121.454	137.622	51.408	-144.306	159.733	17.1409	-84.8652	153.902	23.4445	-108.481	152.875	34.3033	-130.158	162.591	26.5539	-37.1745	169.594	23.9423	-4.60329	138.877	48.213	-15.1652	
59	0.491667	96.9837	30.7824	0.337548	73.9254	46.6424	-21.2357	71.8552	49.1945	-56.9392	67.6707	48.0513	-80.5405	98.335	60.1068	-77.9119	95.4523	62.859	-104.529	95.0707	65.8736	-133.102	119.157	54.8854	-92.3888	113.396	60.5965	-120.18	109.421	68.2024	-145.799	138.353	42.2147	-91.198	134.274	47.0715	-115.874	128.315	54.6444	-140.451	154.553	21.9341	-79.9582	148.592	27.5007	-103.928	141.47	38.1878	-123.619	152.726	32.7439	-37.2239	162.079	28.5016	-1.28148	129.143	46.8692	-9.92361	
60	0.5	88.2284	24.3663	6.29893	70.4794	34.2568	-18.5507	60.5709	39.9218	-52.6496	57.5877	39.041	-79.6329	91.3131	54.5916	-77.8228	82.8397	57.6752	-104.688	79.9017	61.6042	-131.427	108.966	52.2677	-84.9636	99.7144	55.7268	-113.429	98.4468	64.1881	-147.764	130.088	42.5972	-90.9229	124.602	45.338	-112.414	117.325	53.7757	-139.054	150.246	23.8781	-77.7169	137.224	31.2356	-101.824	137.382	39.271	-121.318	148.887	35.1955	-32.6597	156.316	32.0065	0.414213	119.622	46.2715	-9.88231	
61	0.508333	85.2837	20.457	3.92634	60.6995	26.5659	-16.5492	53.5891	29.62	-53.5582	56.4423	25.6856	-76.994	83.7333	45.9145	-73.002	79.9685	46.7568	-103.919	72.431	48.3486	-127.676	106.444	43.628	-85.4202	92.9543	47.2931	-115.025	87.4648	52.4219	-143.654	121.915	37.3069	-86.838	117.142	39.5335	-108.588	110.556	45.5687	-135.902	141.937	23.8736	-77.1039	137.167	25.4763	-98.3554	127.859	38.2961	-122.34	143.579	32.9307	-32.612	151.293	32.3489	0.623355	110.988	42.7596	-7.15942	
62	0.516667	81.6436	16.9359	5.78961	60.2133	20.1769	-17.8703	52.9902	22.502	-56.1718	51.3951	18.6217	-78.7088	82.5958	38.2912	-74.5218	76.967	37.3599	-100.883	67.7676	39.3907	-129.645	100.162	39.9631	-90.4624	89.4322	39.2129	-114.563	85.0455	43.2002	-147.199	122.751	31.4578	-86.663	111.179	34.6512	-112.313	105.191	39.8359	-140.265	144.08	19.3682	-76.0157	132.681	22.8234	-100.136	123.513	31.5099	-121.771	139.933	31.2288	-28.9784	150.018	31.7813	3.0356	109.045	38.2996	-9.42252	
63	0.525	79.4236	13.9949	4.30767	59.2399	16.4144	-19.1291	48.9617	17.0454	-53.713	46.6914	12.9032	-80.7235	81.2031	33.3799	-75.944	68.2906	34.1577	-102.878	68.0194	31.6947	-131.622	99.9008	33.8701	-87.9132	90.1024	32.8678	-113.3	83.9563	37.0378	-148.698	123.405	26.5258	-86.1952	116.381	27.2678	-111.799	108.481	30.8875	-137.662	144.518	15.095	-75.2307	134.683	16.541	-96.6973	130.898	26.0121	-120.239	138.706	30.7589	-31.8077	146.587	29.6492	4.17071	105.177	35.5524	-8.98533	
64	0.533333	81.6296	9.67141	9.40926	56.877	14.3302	-18.7598	43.2381	11.9559	-47.8804	39.5663	8.99836	-75.0612	77.2405	29.5625	-73.4068	66.9432	27.929	-103.947	64.6306	26.2663	-130.63	97.5998	29.4099	-86.4469	92.9035	27.2513	-115.505	82.9411	30.0271	-144.618	125.726	21.6129	-85.7322	122.214	23.0176	-115.025	114.386	25.0323	-136.321	147.548	9.86665	-73.8075	145.89	11.4203	-99.036	148.087	18.683	-119.934	140.586	25.5668	-31.6266	147.382	27.9101	3.76003	108.475	32.2069	-7.50558	
65	0.541667	80.2041	7.19657	6.78021	59.5001	6.65713	-15.7886	38.9301	7.13917	-42.7584	29.1607	1.84405	-65.4425	80.2905	21.9338	-75.1731	72.8913	19.003	-105.034	65.306	18.4286	-128.281	105.764	23.5061	-91.4718	98.2676	20.822	-115.952	89.3692	22.4466	-144.496	130.074	15.7267	-87.4122	128.902	15.8221	-111.98	125.661	19.0146	-140.213	155.873	2.76299	-73.5324	162.834	2.14136	-98.7001	165.825	7.67863	-117.548	142.322	20.2936	-28.2497	145.9	22.9315	5.59852	110.874	30.0487	-11.7584	
66	0.55	79.569	3.42816	4.62347	58.7162	0.162999	-14.5236	34.0292	1.41398	-42.0889	22.4282	-4.63362	-61.1105	82.0036	13.663	-81.0533	70.274	12.2048	-102.393	61.7002	11.6314	-132.492	108.698	16.2806	-89.1411	102.478	14.6057	-118.645	97.6462	16.1084	-151.362	137.839	8.56429	-90.4146	138.933	8.3289	-115.34	137.065	10.4819	-139.502	162.079	-4.68058	-71.1731	169.023	-7.55898	-91.466	182.599	-3.06294	-114.426	145.222	15.619	-33.3111	147.998	18.3052	1.17248	111.079	23.3267	-11.249	
67	0.558333	78.3118	0.779345	3.77826	57.9349	-3.95833	-16.171	35.4788	-5.52631	-42.3099	16.7333	-10.4614	-56.2301	82.8151	9.64608	-82.2634	70.0645	6.85289	-106.015	64.7843	6.36332	-133.605	106.722	12.1625	-93.8936	106.057	10.5767	-120.239	102.938	12.1418	-150.302	141.042	4.40155	-85.6525	141.704	3.39125	-111.501	143.532	5.197	-139.751	166.082	-10.0492	-69.3295	173.702	-10.9657	-95.5656	186.307	-8.26101	-111.365	143.31	12.2668	-30.6917	149.873	17.5601	2.7135	107.888	21.5387	-15.2571	
68	0.566667	78.9573	-0.655059	2.64519	59.5337	-6.15162	-15.3393	29.9707	-7.78739	-38.7541	14.1507	-13.0138	-54.2465	84.9134	8.8773	-80.9083	75.8196	6.96214	-106.109	64.0826	5.7535	-131.964	113.031	13.0077	-95.7466	109.949	10.2977	-121.279	107.209	12.7116	-152.291	144.132	4.08509	-87.4757	143.37	2.80627	-112.069	145.766	6.44399	-142.596	166.049	-10.067	-70.8229	173.109	-13.887	-90.6259	187.912	-8.49968	-113.929	141.685	12.809	-30.5874	147.993	17.6144	-0.916476	112.532	20.7917	-16.579	
69	0.575	82.8268	0.495724	-1.91929	59.9838	-5.0785	-16.2506	31.9501	-7.358	-41.6266	15.9037	-14.6032	-52.8382	81.5616	10.9313	-83.8603	73.5343	8.74621	-106.974	65.3785	7.689	-132.293	112.89	13.9511	-93.1684	109.106	12.1082	-121.299	112.598	13.157	-153.377	144.004	4.60548	-85.827	144.063	2.58682	-111.113	152.356	4.62143	-140.784	165.396	-9.29834	-73.0442	178.504	-14.9246	-88.57	189.965	-12.0887	-109.354	145.33	13.5348	-33.6598	144.857	19.2495	2.55179	109.724	20.9841	-12.3928	
70	0.583333	82.9529	0.321581	0.76997	59.0199	-5.54214	-18.2938	29.672	-7.62913	-38.8152	13.5391	-14.0648	-53.9161	84.9954	11.2725	-86.3109	73.512	9.39485	-107.702	63.0312	8.60489	-135.957	117.187	13.6742	-92.7129	109.065	12.2808	-119.197	112.733	13.2438	-150.56	141.826	3.90847	-86.4474	144.751	2.98121	-110.894	147.769	5.28291	-139.424	166.097	-9.43899	-73.1796	178.822	-15.1012	-93.2181	186.505	-11.7484	-109.91	145.462	11.7722	-34.4236	146.639	18.0278	-1.98632	111.985	23.6505	-15.6184	
